<svg xmlns="http://www.w3.org/2000/svg" viewBox="0 0 23.33 23.33"><title>Recurso 2</title><g id="Capa_2" data-name="Capa 2"><g id="Capa_1-2" data-name="Capa 1"><path d="M11.67,23.33A11.67,11.67,0,1,1,23.33,11.67,11.67,11.67,0,0,1,11.67,23.33M11.67,2a9.67,9.67,0,1,0,9.66,9.67A9.68,9.68,0,0,0,11.67,2Z"/><path d="M11.67,12.67a1,1,0,0,1-1-1V4.45a1,1,0,0,1,2,0v7.22a1,1,0,0,1-1,1"/><path d="M11.67,2.65a1,1,0,0,1-1-1V1a1,1,0,0,1,2,0v.65a1,1,0,0,1-1,1"/><path d="M11.67,23.33a1,1,0,0,1-1-1v-.65a1,1,0,0,1,2,0v.65a1,1,0,0,1-1,1"/><path d="M22.33,12.66h-.65a1,1,0,0,1,0-2h.65a1,1,0,0,1,0,2"/><path d="M1.65,12.66H1a1,1,0,0,1,0-2h.65a1,1,0,1,1,0,2"/><path d="M16.21,4.29,16,4.22a.5.5,0,0,1-.19-.68L16.07,3a.52.52,0,0,1,.69-.19.51.51,0,0,1,.18.69L16.65,4a.51.51,0,0,1-.44.25"/><path d="M6.82,20.55l-.25-.06a.5.5,0,0,1-.18-.68l.29-.51a.5.5,0,1,1,.87.49l-.29.51a.51.51,0,0,1-.44.25"/><path d="M20.05,17l-.25-.07-.5-.29a.5.5,0,0,1-.19-.68.51.51,0,0,1,.69-.19l.5.29a.5.5,0,0,1-.25.94"/><path d="M3.79,7.62l-.25-.07L3,7.26a.51.51,0,0,1-.18-.69.49.49,0,0,1,.68-.18L4,6.68a.5.5,0,0,1,.18.68.49.49,0,0,1-.43.26"/><path d="M7.12,4.29A.52.52,0,0,1,6.68,4l-.29-.51A.5.5,0,1,1,7.26,3l.29.51a.49.49,0,0,1-.18.68l-.25.07"/><path d="M16.51,20.55a.49.49,0,0,1-.43-.24l-.3-.51a.51.51,0,0,1,.19-.69.5.5,0,0,1,.68.18l.3.51a.52.52,0,0,1-.19.69l-.25.06"/><path d="M3.28,17a.5.5,0,0,1-.44-.26A.51.51,0,0,1,3,16.07l.51-.29a.5.5,0,0,1,.5.87l-.51.29L3.28,17"/><path d="M19.55,7.62a.5.5,0,0,1-.25-.94l.5-.29a.5.5,0,1,1,.5.87l-.5.29-.25.07"/><path d="M8.65,15.69a1,1,0,0,1-.71-.3,1,1,0,0,1,0-1.41l2.9-2.9a1,1,0,0,1,1.42,0,1,1,0,0,1,0,1.41l-2.91,2.9a1,1,0,0,1-.7.3"/></g></g></svg>