<svg xmlns="http://www.w3.org/2000/svg" viewBox="0 0 22.88 16.59"><defs><style>.cls-1{fill:#fff;}</style></defs><title>Recurso 3</title><g id="Capa_2" data-name="Capa 2"><g id="Capa_1-2" data-name="Capa 1"><path class="cls-1" d="M20.52,16.59H2.36A2.36,2.36,0,0,1,0,14.24V2.35A2.36,2.36,0,0,1,2.36,0H20.52a2.36,2.36,0,0,1,2.36,2.35V14.24a2.36,2.36,0,0,1-2.36,2.35M2.36,2A.36.36,0,0,0,2,2.35V14.24a.36.36,0,0,0,.36.35H20.52a.36.36,0,0,0,.36-.35V2.35A.36.36,0,0,0,20.52,2Z"/><path class="cls-1" d="M20.52,16.09H2.36a1.87,1.87,0,0,1-1.74-1.2.5.5,0,0,1,.14-.55L7.85,8a.5.5,0,0,1,.7,0,.5.5,0,0,1,0,.71L1.73,14.82a.87.87,0,0,0,.63.27H20.52a.87.87,0,0,0,.63-.27L14.29,8.7a.5.5,0,0,1,0-.71A.5.5,0,0,1,15,8l7.17,6.39a.5.5,0,0,1,.14.55,1.87,1.87,0,0,1-1.74,1.2"/><path class="cls-1" d="M11.44,11.6a.46.46,0,0,1-.33-.13L.76,2.25A.5.5,0,0,1,.62,1.7,1.87,1.87,0,0,1,2.36.5H20.52a1.87,1.87,0,0,1,1.74,1.2.5.5,0,0,1-.14.55L11.77,11.47a.46.46,0,0,1-.33.13M1.73,1.77l9.71,8.66,9.71-8.66a.87.87,0,0,0-.63-.27H2.36A.87.87,0,0,0,1.73,1.77Z"/></g></g></svg>