<svg xmlns="http://www.w3.org/2000/svg" viewBox="0 0 23.23 23.23"><title>Recurso 2</title><g id="Capa_2" data-name="Capa 2"><g id="Capa_1-2" data-name="Capa 1"><path d="M18.33,23.23A18.24,18.24,0,0,1,5.7,17.61l-.08-.08h0A18.16,18.16,0,0,1,0,4.57V4.24L.22,4a13.14,13.14,0,0,1,1-1.09A12.06,12.06,0,0,1,5.43.12,1.67,1.67,0,0,1,6.08,0c.54,0,1.75.28,2.06,1.12.55,1.52,1.23,3.5,1.74,5.39a2.41,2.41,0,0,1-.74,2.28L7.37,9.91a1.28,1.28,0,0,0,.24.61A23.85,23.85,0,0,0,10,13.28a22.55,22.55,0,0,0,2.74,2.34,1,1,0,0,0,.56.21l.61-.85.56-.89a2.39,2.39,0,0,1,1.86-.78,1.48,1.48,0,0,1,.38,0,25.58,25.58,0,0,1,5.5,1.77,2.37,2.37,0,0,1,.93,2.69A12,12,0,0,1,20.36,22a13,13,0,0,1-1.1,1l-.27.2h-.66M2,5A16.46,16.46,0,0,0,7,16.12l.1.1a16.21,16.21,0,0,0,11.14,5c.24-.19.46-.4.67-.6a10.21,10.21,0,0,0,2.3-3.55s-.05-.13-.09-.22a23.68,23.68,0,0,0-4.91-1.56l-.24,0-1,1.59a2.46,2.46,0,0,1-3.48.3,27.37,27.37,0,0,1-3-2.54A27.94,27.94,0,0,1,6,11.7a2.84,2.84,0,0,1-.55-2.19,2,2,0,0,1,.87-1.29l1.58-1a1.86,1.86,0,0,0,0-.28C7.49,5.3,6.87,3.5,6.35,2.06L6.08,2A10.37,10.37,0,0,0,2.6,4.29Q2.3,4.59,2,5Z"/></g></g></svg>