<?xml version="1.0" encoding="UTF-8"?>
<!DOCTYPE svg PUBLIC "-//W3C//DTD SVG 1.1//EN" "http://www.w3.org/Graphics/SVG/1.1/DTD/svg11.dtd">
<!-- Creator: CorelDRAW X7 -->
<svg xmlns="http://www.w3.org/2000/svg" xml:space="preserve" width="7.6mm" height="7.5999mm" version="1.1" style="shape-rendering:geometricPrecision; text-rendering:geometricPrecision; image-rendering:optimizeQuality; fill-rule:evenodd; clip-rule:evenodd"
viewBox="0 0 102 102"
 xmlns:xlink="http://www.w3.org/1999/xlink">
 <defs>
  <style type="text/css">
   <![CDATA[
    .fil1 {fill:black}
    .fil0 {fill:white}
   ]]>
  </style>
 </defs>
 <g id="Capa_x0020_2">
  <metadata id="CorelCorpID_0Corel-Layer"/>
  <g id="_1976252876160">
   <circle class="fil0" cx="51" cy="51" r="51"/>
   <g>
    <path class="fil1" d="M51 26c8,0 9,0 12,0 3,0 5,1 6,1 1,1 2,2 3,3 2,1 2,2 3,3 0,1 1,3 1,6 0,3 0,4 0,12 0,8 0,9 0,12 0,3 -1,5 -1,6 -1,1 -1,2 -3,3 -1,2 -2,2 -3,3 -1,0 -3,1 -6,1 -3,0 -4,0 -12,0 -8,0 -9,0 -12,0 -3,0 -5,-1 -6,-1 -1,-1 -2,-1 -3,-3 -1,-1 -2,-2 -3,-3 0,-1 -1,-3 -1,-6 0,-3 0,-4 0,-12 0,-8 0,-9 0,-12 0,-3 1,-5 1,-6 1,-1 2,-2 3,-3 1,-1 2,-2 3,-3 1,0 3,-1 6,-1 3,0 4,0 12,0l0 0zm0 -5c-8,0 -9,0 -13,0 -3,0 -5,0 -7,1 -2,1 -4,2 -5,4 -2,1 -3,3 -4,5 -1,2 -1,4 -1,7 0,4 0,5 0,13 0,8 0,9 0,13 0,3 0,5 1,7 1,2 2,4 4,5 1,2 3,3 5,4 2,1 4,1 7,1 4,0 5,0 13,0 8,0 9,0 13,0 3,0 5,0 7,-1 2,-1 4,-2 5,-4 2,-1 3,-3 4,-5 1,-2 1,-4 1,-7 0,-4 0,-5 0,-13 0,-8 0,-9 0,-13 0,-3 0,-5 -1,-7 -1,-2 -2,-4 -4,-5 -1,-2 -3,-3 -5,-4 -2,-1 -4,-1 -7,-1 -4,0 -5,0 -13,0zm0 14c-9,0 -16,7 -16,16 0,9 7,16 16,16 9,0 16,-7 16,-16 0,-9 -7,-16 -16,-16zm0 26c-6,0 -10,-4 -10,-10 0,-6 4,-10 10,-10 6,0 10,4 10,10 0,6 -4,10 -10,10zm20 -26c0,2 -2,3 -4,3 -2,0 -3,-1 -3,-3 0,-2 1,-4 3,-4 2,0 4,2 4,4z"/>
   </g>
  </g>
 </g>
</svg>
