<?xml version="1.0" encoding="UTF-8"?>
<!DOCTYPE svg PUBLIC "-//W3C//DTD SVG 1.1//EN" "http://www.w3.org/Graphics/SVG/1.1/DTD/svg11.dtd">
<!-- Creator: CorelDRAW X7 -->
<svg xmlns="http://www.w3.org/2000/svg" xml:space="preserve" width="210mm" height="297mm" version="1.1" style="shape-rendering:geometricPrecision; text-rendering:geometricPrecision; image-rendering:optimizeQuality; fill-rule:evenodd; clip-rule:evenodd"
viewBox="0 0 21000 29700"
 xmlns:xlink="http://www.w3.org/1999/xlink">
 <defs>
  <style type="text/css">
   <![CDATA[
    .fil0 {fill:white}
   ]]>
  </style>
 </defs>
 <g id="Capa_x0020_1">
  <metadata id="CorelCorpID_0Corel-Layer"/>
  <path class="fil0" d="M18479 6838c-2111,-2112 -4917,-3276 -7907,-3278 -6160,0 -11174,5014 -11177,11177 -1,1969 514,3892 1492,5587l-1586 5792 5926 -1554c1632,890 3470,1360 5341,1360l4 0c6160,0 11175,-5014 11177,-11177 1,-2986 -1160,-5794 -3270,-7907l0 0zm-7907 17197l-4 0c-1666,-1 -3301,-449 -4728,-1295l-339 -202 -3516 923 939 -3428 -221 -352c-930,-1479 -1421,-3189 -1421,-4944 2,-5122 4170,-9289 9294,-9289 2481,1 4814,968 6568,2724 1754,1756 2719,4090 2718,6573 -2,5122 -4169,9290 -9290,9290zm5096 -6958c-279,-140 -1652,-815 -1908,-909 -256,-93 -443,-139 -629,140 -186,280 -721,909 -884,1095 -163,187 -326,210 -605,70 -279,-140 -1179,-435 -2246,-1386 -830,-741 -1391,-1655 -1554,-1935 -162,-279 -1,-416 123,-570 302,-375 605,-769 698,-955 93,-186 47,-349 -23,-489 -70,-140 -629,-1514 -861,-2074 -227,-544 -457,-471 -629,-479 -162,-8 -349,-10 -535,-10 -186,0 -489,70 -745,350 -256,279 -977,955 -977,2329 0,1375 1001,2703 1140,2889 140,187 1970,3008 4771,4217 666,288 1187,460 1592,589 669,212 1278,182 1759,110 537,-80 1652,-675 1885,-1328 233,-652 233,-1211 163,-1328 -70,-116 -256,-186 -535,-326l0 0zm0 0z"/>
 </g>
</svg>
